<?xml version="1.0" encoding="UTF-8" ?>
<!DOCTYPE svg PUBLIC "-//W3C//DTD SVG 1.1//EN" "http://www.w3.org/Graphics/SVG/1.1/DTD/svg11.dtd">
<svg width="690pt" height="690pt" viewBox="0 0 690 690" version="1.1" xmlns="http://www.w3.org/2000/svg">
<g id="#ffffffff">
</g>
<g id="#034378ff">
<path fill="#1a1a1a" opacity="1.00" d=" M 428.08 111.15 C 432.70 108.34 438.53 106.05 443.88 108.12 C 449.61 109.64 453.95 113.99 457.59 118.44 C 472.97 138.79 487.55 159.70 502.97 180.02 C 506.20 184.14 509.37 188.32 512.21 192.71 C 515.82 198.87 516.39 207.21 512.21 213.24 C 509.19 218.48 503.70 221.36 499.73 225.73 C 492.20 233.59 483.48 240.15 475.67 247.70 C 467.82 254.61 459.98 261.54 451.96 268.25 C 453.57 271.69 456.56 274.16 458.67 277.28 C 465.45 287.06 473.36 295.99 480.35 305.62 C 492.88 321.18 504.64 337.33 517.03 353.00 C 531.72 371.33 545.95 390.02 560.47 408.48 C 570.45 422.12 581.29 435.09 591.30 448.71 C 600.69 461.00 609.90 473.43 619.08 485.87 C 622.66 491.41 627.46 496.49 628.86 503.13 C 629.17 508.02 629.69 513.43 626.62 517.63 C 621.33 526.65 611.55 531.22 604.16 538.17 C 596.84 543.97 589.44 549.75 581.18 554.15 C 574.75 558.67 566.10 560.62 558.74 557.20 C 550.17 553.11 545.36 544.48 539.89 537.17 C 531.15 525.50 523.18 513.28 514.33 501.69 C 495.30 474.71 476.57 447.51 457.38 420.64 C 438.07 393.58 419.65 365.87 399.95 339.08 C 395.55 332.60 391.00 326.21 386.03 320.15 C 364.48 336.07 342.39 351.29 319.93 365.89 C 315.43 369.09 309.67 369.80 304.38 368.61 C 300.38 366.92 297.27 363.72 294.43 360.54 C 275.16 337.59 257.72 313.19 239.93 289.08 C 235.54 282.66 230.72 275.30 232.17 267.12 C 233.98 259.10 240.89 253.92 246.32 248.32 C 258.91 236.86 271.82 225.76 284.91 214.87 C 288.39 211.95 292.24 209.44 295.34 206.09 C 290.47 197.89 283.67 190.73 280.54 181.58 C 278.84 176.34 280.85 170.50 284.73 166.76 C 295.53 155.70 308.74 147.45 320.46 137.46 C 326.25 132.55 333.68 128.00 341.58 129.52 C 347.37 130.36 350.83 135.47 354.55 139.42 C 357.80 143.87 362.04 147.46 365.29 151.91 C 368.29 150.55 370.85 148.46 373.51 146.56 C 391.47 134.39 409.60 122.49 428.08 111.15 Z" />
<path fill="#1a1a1a" opacity="1.00" d=" M 61.02 398.95 C 61.11 393.89 65.89 389.59 70.93 390.01 C 140.21 390.12 209.49 389.85 278.77 390.10 C 279.53 391.03 280.29 391.97 281.02 392.93 C 275.88 402.68 269.09 411.44 263.74 421.06 C 265.26 425.14 269.35 427.05 272.79 429.24 C 279.15 433.27 285.76 436.88 292.13 440.91 C 293.82 442.20 295.86 443.74 296.00 446.07 C 296.54 449.62 293.84 452.41 292.39 455.38 C 287.48 464.96 281.64 474.00 276.39 483.39 C 274.89 486.79 272.17 490.16 268.05 489.93 C 202.35 490.11 136.65 489.90 70.96 489.97 C 67.21 489.99 63.05 487.92 61.84 484.19 C 60.58 481.28 61.07 478.06 60.99 474.99 C 61.03 449.64 61.04 424.29 61.02 398.95 Z" />
<path fill="#1a1a1a" opacity="1.00" d=" M 346.75 394.75 C 349.09 392.65 351.46 389.75 354.96 390.06 C 373.23 390.03 391.50 390.00 409.77 390.01 C 415.08 396.22 419.31 403.26 424.19 409.81 C 442.66 436.28 461.33 462.62 479.92 489.03 C 477.80 490.20 475.34 489.99 473.02 490.01 C 420.67 489.92 368.33 489.91 315.99 489.90 C 314.47 489.96 312.13 489.95 311.88 488.01 C 316.37 482.49 320.66 476.77 325.79 471.80 C 332.94 464.94 339.56 457.56 346.85 450.85 C 348.88 448.82 351.64 446.36 350.88 443.18 C 349.95 440.37 347.45 438.58 345.43 436.59 C 342.10 433.59 339.11 430.24 336.21 426.83 C 333.60 423.76 330.31 421.22 328.31 417.67 C 327.47 415.31 327.73 412.43 329.79 410.79 C 335.33 405.32 340.80 399.77 346.75 394.75 Z" />
<path fill="#1a1a1a" opacity="1.00" d=" M 573.66 390.10 C 588.45 389.91 603.26 390.05 618.06 390.02 C 620.74 389.90 623.50 390.59 625.61 392.32 C 628.55 394.50 629.02 398.54 629.02 401.95 C 628.89 422.06 629.18 442.18 628.84 462.29 C 628.33 462.01 627.31 461.46 626.80 461.19 C 610.21 439.16 593.69 417.04 576.76 395.26 C 575.48 393.69 574.43 391.96 573.66 390.10 Z" />
<path fill="#1a1a1a" opacity="1.00" d=" M 317.47 520.53 C 320.21 519.64 323.45 520.46 325.05 522.97 C 329.65 530.37 332.53 538.67 336.53 546.40 C 339.88 552.83 342.57 559.58 345.90 566.03 C 348.44 570.32 346.06 576.90 341.03 577.94 C 332.72 579.90 324.23 580.98 315.89 582.83 C 312.54 583.54 308.07 582.94 306.68 579.33 C 304.59 575.83 306.19 571.78 306.01 568.00 C 305.88 560.96 307.10 554.00 307.06 546.97 C 307.09 540.01 308.05 533.11 308.15 526.16 C 309.37 522.13 313.69 520.80 317.47 520.53 Z" />
</g>
</svg>
